Coordinates
version=1
nRows=29
nColumns=24
inDegrees=yes

Units are S.I. units (second, meters, Newtons, ...)
Angles are in degrees.

endheader
time	pelvis_tilt	pelvis_list	pelvis_rotation	pelvis_tx	pelvis_ty	pelvis_tz	hip_flexion_r	hip_adduction_r	hip_rotation_r	knee_angle_r	ankle_angle_r	subtalar_angle_r	mtp_angle_r	hip_flexion_l	hip_adduction_l	hip_rotation_l	knee_angle_l	ankle_angle_l	subtalar_angle_l	mtp_angle_l	lumbar_extension	lumbar_bending	lumbar_rotation
      1.06233333	     -5.56146263	     -3.80216576	     -5.21619767	     -0.14572473	      0.97269478	      0.34942237	     -8.61363641	      7.83425115	     -0.63321990	     -8.01531738	     13.10282275	     -1.66484206	      3.92915826	     28.39725799	     -4.05237342	     -5.30686608	     -0.00013173	     -1.48440218	      0.00838113	      0.68106776	      0.17571842	      7.01096944	      7.97692935
      1.06650000	     -5.62275337	     -3.74171936	     -5.22991196	     -0.13986883	      0.97209371	      0.34911196	     -8.65586149	      7.71114250	     -0.72651965	     -8.48297829	     13.12535939	     -1.54577228	      3.85003347	     28.34782990	     -3.93055449	     -5.27643460	      0.04125820	     -1.79881281	     -0.19980740	      0.71018038	      0.28284482	      6.95199612	      8.00577903
      1.07066667	     -5.68664643	     -3.66102076	     -5.23100131	     -0.13396477	      0.97155258	      0.34882795	     -8.70444285	      7.57568240	     -0.75824922	     -8.92895348	     13.11127477	     -1.54837848	      3.81325108	     28.31498447	     -3.79155527	     -5.27333700	     -0.00659850	     -2.15055288	     -0.34198788	      0.73304719	      0.40480448	      6.83915575	      8.01128450
      1.07483333	     -5.78180374	     -3.58581925	     -5.23995467	     -0.12807930	      0.97102438	      0.34849778	     -8.67196437	      7.43833013	     -0.83699469	     -9.46443520	     13.10266324	     -1.46193350	      3.76337003	     28.30076968	     -3.65901956	     -5.14389326	     -0.08266324	     -2.56836052	     -0.73866061	      0.80069646	      0.54512889	      6.77238452	      8.04592540
      1.07900000	     -5.85196847	     -3.48688651	     -5.23201014	     -0.12213199	      0.97059131	      0.34815799	     -8.66343366	      7.27617494	     -0.90742841	    -10.00130528	     13.04980705	     -1.42349853	      3.73109898	     28.26744254	     -3.49845336	     -5.03917129	     -0.22547908	     -3.02595980	     -1.10095053	      0.88731567	      0.67825997	      6.65977050	      8.05672887
      1.08316667	     -5.94885314	     -3.38375755	     -5.22113457	     -0.11616546	      0.97018487	      0.34781820	     -8.60940580	      7.11384707	     -0.96393336	    -10.56511487	     12.96428747	     -1.41250039	      3.71988744	     28.26904049	     -3.33740813	     -4.91000539	     -0.42831565	     -3.51659664	     -1.50235920	      0.98189165	      0.85301003	      6.53926346	      8.06348774
      1.08733333	     -6.04301307	     -3.27086333	     -5.20235803	     -0.11017028	      0.96984378	      0.34745525	     -8.53448617	      6.93908682	     -1.03190252	    -11.17150331	     12.84517722	     -1.41558187	      3.72973189	     28.26541358	     -3.16388139	     -4.74476237	     -0.66732459	     -4.04463263	     -1.96464846	      1.09744398	      1.02006753	      6.41240937	      8.06931738
      1.09150000	     -6.13413481	     -3.14788260	     -5.17452840	     -0.10414504	      0.96956444	      0.34707442	     -8.44473177	      6.75353194	     -1.10089773	    -11.80678086	     12.69338172	     -1.43478437	      3.76212088	     28.26484206	     -2.97769415	     -4.56827979	     -0.95418022	     -4.59826082	     -2.45876928	      1.22190515	      1.19012743	      6.27123640	      8.06970112
      1.09566667	     -6.22024353	     -3.02107217	     -5.13818564	     -0.09809568	      0.96934676	      0.34667569	     -8.33663080	      6.56284267	     -1.17585335	    -12.48378945	     12.50189940	     -1.46066556	      3.82746056	     28.25819553	     -2.78475282	     -4.35618959	     -1.27038688	     -5.16232226	     -2.98745174	      1.37562732	      1.35818372	      6.12455696	      8.06107475
      1.09983333	     -6.31706504	     -2.88095855	     -5.09229149	     -0.09202348	      0.96917782	      0.34625996	     -8.19621650	      6.36045543	     -1.24455431	    -13.19243897	     12.27692308	     -1.51642274	      3.90796212	     28.27925019	     -2.57706760	     -4.16083496	     -1.64281478	     -5.74571537	     -3.51450723	      1.51036008	      1.54546307	      5.95647885	      8.04922629
      1.10400000	     -6.40058040	     -2.73783893	     -5.03827393	     -0.08592714	      0.96908231	      0.34581571	     -8.04148591	      6.15083778	     -1.32629369	    -13.95155672	     12.00504270	     -1.58061872	      4.02540919	     28.28024854	     -2.36133612	     -3.92468261	     -2.02593055	     -6.32524821	     -4.08121933	      1.65991789	      1.71849401	      5.79045183	      8.03015457
      1.10816667	     -6.49315823	     -2.58635173	     -4.97551233	     -0.07981207	      0.96903317	      0.34535596	     -7.85218194	      5.93457831	     -1.40420042	    -14.74847407	     11.69301717	     -1.66452724	      4.16485513	     28.30382645	     -2.13515267	     -3.69592898	     -2.45328328	     -6.90014949	     -4.63465952	      1.79998185	      1.90264668	      5.61661876	      8.00744409
      1.11233333	     -6.57620538	     -2.43207027	     -4.90685216	     -0.07367802	      0.96904920	      0.34487343	     -7.64220691	      5.71177984	     -1.48877787	    -15.59917209	     11.33690481	     -1.75902697	      4.34414500	     28.31548491	     -1.90297369	     -3.44868824	     -2.89227682	     -7.45494129	     -5.19565506	      1.94409094	      2.07956648	      5.43499030	      7.98042340
      1.11650000	     -6.65952661	     -2.26624503	     -4.83025740	     -0.06752373	      0.96912133	      0.34436955	     -7.40030009	      5.47485509	     -1.58089790	    -16.49897084	     10.93123221	     -1.85415591	      4.56226283	     28.33225145	     -1.65595581	     -3.20146874	     -3.35556976	     -7.98612237	     -5.74320235	      2.08482483	      2.26550499	      5.23984756	      7.94800309
      1.12066667	     -6.69171975	     -2.07457664	     -4.71059515	     -0.06131745	      0.96927683	      0.34377403	     -7.17890730	      5.19021331	     -1.81143681	    -17.44239567	     10.36505581	     -1.84622879	      8.45436332	     28.30474554	     -1.35970363	     -2.95642263	     -3.84223865	     -8.48193427	     -6.25154121	      4.12173478	      2.38205728	      5.00052102	      7.89497293
      1.12483333	     -6.77188176	     -1.90050922	     -4.64719799	     -0.05515815	      0.96946859	      0.34328470	     -6.87903254	      4.94827505	     -1.81742728	    -18.44119568	      9.89982004	     -2.09988443	      8.51141438	     28.31959989	     -1.11270085	     -2.74548731	     -4.33196448	     -8.95557062	     -6.75083663	      4.10068274	      2.56628222	      4.80423038	      7.86937866
      1.12900000	     -6.83877379	     -1.71630307	     -4.55204860	     -0.04897526	      0.96970479	      0.34271759	     -6.55351676	      4.68292869	     -1.91629547	    -19.49930823	      9.33449918	     -2.22770537	      8.61277791	     28.32406430	     -0.83752232	     -2.50261577	     -4.83611500	     -9.36208862	     -7.23529349	      4.07860750	      2.73507819	      4.58790803	      7.83105236
      1.13316667	     -6.88459415	     -1.52152111	     -4.44919518	     -0.04278484	      0.97000547	      0.34212444	     -6.21266854	      4.39865720	     -2.03955041	    -20.61544442	      8.71926329	     -2.32261837	      8.76352365	     28.30591687	     -0.54553260	     -2.26419385	     -5.34892715	     -9.71613541	     -7.70063154	      4.05249051	      2.87756196	      4.35953963	      7.78747738
      1.13733333	     -6.92889255	     -1.32007282	     -4.34231322	     -0.03659313	      0.97034885	      0.34150997	     -5.83644999	      4.10182253	     -2.16688993	    -21.78504080	      8.04255021	     -2.41405613	      8.96079455	     28.28358090	     -0.24416720	     -2.03140758	     -5.86405877	    -10.01674010	     -8.14300548	      4.02037105	      3.02031280	      4.12461594	      7.74255253
      1.14150000	     -6.95660827	     -1.11010112	     -4.22421229	     -0.03041337	      0.97073365	      0.34085335	     -5.44124800	      3.78750823	     -2.31064989	    -23.00770409	      7.32767003	     -2.46337075	      9.28816706	     28.25149588	      0.07534946	     -1.80227367	     -6.40166159	    -10.26303286	     -8.62629267	      3.96972131	      3.13183815	      3.87791438	      7.69499154
      1.14566667	     -6.97629634	     -0.89203293	     -4.11664812	     -0.02421232	      0.97118714	      0.34022083	     -5.01877534	      3.46007889	     -2.44068664	    -24.27995828	      6.49210439	     -2.56946301	      9.54952080	     28.17885571	      0.39507337	     -1.59816369	     -6.88386349	    -10.44012904	     -8.92258478	      3.92731664	      3.25331563	      3.62179856	      7.65005159
      1.14983333	     -6.91772874	     -0.65100011	     -3.95647925	     -0.01798817	      0.97173676	      0.33943969	     -4.65853911	      3.07544368	     -2.69927183	    -25.56362049	      5.52169979	     -2.57460550	     15.06084647	     28.02761071	      0.77848259	     -1.33140490	     -7.38402728	    -10.51351037	     -9.34112416	      3.06441424	      3.26737517	      3.33133607	      7.60235159
      1.15400000	     -6.96425868	     -0.43313248	     -3.87291262	     -0.01187548	      0.97219782	      0.33882906	     -4.12475055	      2.74642527	     -2.75715963	    -26.95387426	      4.63121144	     -2.78271110	     15.11803277	     27.99424434	      1.08461128	     -1.21188845	     -7.89627649	    -10.60184495	     -9.63009318	      3.05594765	      3.40444864	      3.08334493	      7.55081627
      1.15816667	     -6.95560673	     -0.20155417	     -3.75578742	     -0.00572859	      0.97274963	      0.33813533	     -3.62865009	      2.38320773	     -2.89320755	    -28.36315239	      3.62340571	     -2.88103813	     15.19385387	     27.87075491	      1.42947696	     -1.03581895	     -8.35306001	    -10.60626305	     -9.88625430	      3.04175153	      3.48540396	      2.81760481	      7.50560283
      1.16233333	     -6.96162300	      0.02546296	     -3.63305682	      0.00034461	      0.97328079	      0.33741230	     -3.07801396	      2.01783253	     -3.02925899	    -29.82024022	      2.57384805	     -2.90337216	     15.35655400	     27.77022810	      1.77598813	     -0.84766129	     -8.82352771	    -10.58417019	    -10.24756834	      3.00548273	      3.55976804	      2.55422613	      7.45709711
      1.16650000	     -6.94012290	      0.26600724	     -3.51376289	      0.00643594	      0.97388115	      0.33669591	     -2.53304957	      1.63080754	     -3.16087777	    -31.30163788	      1.44135771	     -3.00221914	     15.48067612	     27.60315234	      2.13444898	     -0.68968267	     -9.22645200	    -10.49172838	    -10.45242025	      2.97599395	      3.62310629	      2.28273628	      7.40785488
      1.17066667	     -6.94515870	      0.49410007	     -3.38938892	      0.01243077	      0.97443736	      0.33595533	     -1.92389597	      1.25405882	     -3.28103185	    -32.81932972	      0.25672349	     -3.03512386	     15.68070972	     27.47515206	      2.48511049	     -0.52201661	     -9.64854746	    -10.38184392	    -10.76241045	      2.92187645	      3.68479834	      2.01888058	      7.35916612
      1.17483333	     -6.93793347	      0.72764672	     -3.26970168	      0.01839935	      0.97501862	      0.33521548	     -1.30125359	      0.86501501	     -3.39166567	    -34.36156559	     -0.97971162	     -3.09473278	     15.93825884	     27.30363521	      2.84160926	     -0.35787891	    -10.01237819	    -10.21980864	    -11.02422937	      2.84589465	      3.73952904	      1.75320152	      7.30797157
      1.17900000	     -6.90942059	      0.97914285	     -3.14974067	      0.02437503	      0.97565967	      0.33448159	     -0.68316026	      0.44947281	     -3.50147490	    -35.91392656	     -2.26113598	     -3.22439758	     16.07631666	     27.07640553	      3.21395269	     -0.23390214	    -10.31311578	    -10.02003205	    -11.16397285	      2.80110777	      3.78323944	      1.47612086	      7.25327440
